<?xml version="1.0" encoding="utf-8"?>
<!-- Generator: Adobe Illustrator 24.0.3, SVG Export Plug-In . SVG Version: 6.00 Build 0)  -->
<svg version="1.1" id="Layer_1" xmlns="http://www.w3.org/2000/svg" xmlns:xlink="http://www.w3.org/1999/xlink" x="0px" y="0px"
	 viewBox="0 0 70 34" style="enable-background:new 0 0 70 34;" xml:space="preserve">
<style type="text/css">
	.st0{fill:#D1D7DA;}
</style>
<g>
	<path class="st0" d="M53,3c7.7,0,14,6.3,14,14c0,7.7-6.3,14-14,14H17C9.3,31,3,24.7,3,17C3,9.3,9.3,3,17,3H53 M53,0H17
		C7.6,0,0,7.6,0,17v0c0,9.4,7.6,17,17,17h36c9.4,0,17-7.6,17-17v0C70,7.6,62.4,0,53,0L53,0z"/>
</g>
<circle class="st0" cx="18" cy="17" r="12"/>
</svg>
